<svg width="175" height="175" viewBox="0 0 175 175" fill="none" xmlns="http://www.w3.org/2000/svg">
<path fill-rule="evenodd" clip-rule="evenodd" d="M65.625 10.9375H131.25V87.5C131.25 88.4676 130.994 89.4179 130.507 90.254C130.02 91.0901 129.319 91.7819 128.478 92.259C127.636 92.7361 126.682 92.9812 125.715 92.9695C124.747 92.9578 123.8 92.6895 122.97 92.1922L98.4375 77.4703L73.9047 92.2031C73.0739 92.701 72.1258 92.9692 71.1574 92.9805C70.1889 92.9917 69.2348 92.7456 68.3927 92.2672C67.5505 91.7889 66.8505 91.0955 66.3643 90.2579C65.878 89.4203 65.6229 88.4685 65.625 87.5V10.9375Z" fill="#808080"/>
<path d="M32.8125 0H142.188C147.989 0 153.553 2.30468 157.655 6.40704C161.758 10.5094 164.062 16.0734 164.062 21.875V153.125C164.062 158.927 161.758 164.491 157.655 168.593C153.553 172.695 147.989 175 142.188 175H32.8125C27.0109 175 21.4469 172.695 17.3445 168.593C13.2422 164.491 10.9375 158.927 10.9375 153.125V142.188H21.875V153.125C21.875 156.026 23.0273 158.808 25.0785 160.859C27.1297 162.91 29.9117 164.062 32.8125 164.062H142.188C145.088 164.062 147.87 162.91 149.921 160.859C151.973 158.808 153.125 156.026 153.125 153.125V21.875C153.125 18.9742 151.973 16.1922 149.921 14.141C147.87 12.0898 145.088 10.9375 142.188 10.9375H32.8125C29.9117 10.9375 27.1297 12.0898 25.0785 14.141C23.0273 16.1922 21.875 18.9742 21.875 21.875V32.8125H10.9375V21.875C10.9375 16.0734 13.2422 10.5094 17.3445 6.40704C21.4469 2.30468 27.0109 0 32.8125 0Z" fill="#808080"/>
<path d="M10.9375 54.6875V49.2188C10.9375 47.7683 11.5137 46.3774 12.5393 45.3518C13.5648 44.3262 14.9558 43.75 16.4062 43.75C17.8567 43.75 19.2477 44.3262 20.2732 45.3518C21.2988 46.3774 21.875 47.7683 21.875 49.2188V54.6875H27.3438C28.7942 54.6875 30.1851 55.2637 31.2107 56.2893C32.2363 57.3149 32.8125 58.7058 32.8125 60.1562C32.8125 61.6067 32.2363 62.9976 31.2107 64.0232C30.1851 65.0488 28.7942 65.625 27.3438 65.625H5.46875C4.01835 65.625 2.62735 65.0488 1.60176 64.0232C0.57617 62.9976 0 61.6067 0 60.1562C0 58.7058 0.57617 57.3149 1.60176 56.2893C2.62735 55.2637 4.01835 54.6875 5.46875 54.6875H10.9375ZM10.9375 87.5V82.0312C10.9375 80.5808 11.5137 79.1899 12.5393 78.1643C13.5648 77.1387 14.9558 76.5625 16.4062 76.5625C17.8567 76.5625 19.2477 77.1387 20.2732 78.1643C21.2988 79.1899 21.875 80.5808 21.875 82.0312V87.5H27.3438C28.7942 87.5 30.1851 88.0762 31.2107 89.1018C32.2363 90.1273 32.8125 91.5183 32.8125 92.9688C32.8125 94.4192 32.2363 95.8102 31.2107 96.8357C30.1851 97.8613 28.7942 98.4375 27.3438 98.4375H5.46875C4.01835 98.4375 2.62735 97.8613 1.60176 96.8357C0.57617 95.8102 0 94.4192 0 92.9688C0 91.5183 0.57617 90.1273 1.60176 89.1018C2.62735 88.0762 4.01835 87.5 5.46875 87.5H10.9375ZM10.9375 120.312V114.844C10.9375 113.393 11.5137 112.002 12.5393 110.977C13.5648 109.951 14.9558 109.375 16.4062 109.375C17.8567 109.375 19.2477 109.951 20.2732 110.977C21.2988 112.002 21.875 113.393 21.875 114.844V120.312H27.3438C28.7942 120.312 30.1851 120.889 31.2107 121.914C32.2363 122.94 32.8125 124.331 32.8125 125.781C32.8125 127.232 32.2363 128.623 31.2107 129.648C30.1851 130.674 28.7942 131.25 27.3438 131.25H5.46875C4.01835 131.25 2.62735 130.674 1.60176 129.648C0.57617 128.623 0 127.232 0 125.781C0 124.331 0.57617 122.94 1.60176 121.914C2.62735 120.889 4.01835 120.312 5.46875 120.312H10.9375Z" fill="#808080"/>
</svg>
