<svg width="235" height="164" viewBox="0 0 235 164" fill="none" xmlns="http://www.w3.org/2000/svg">
<path d="M47.8334 0H6.83334C3.075 0 0 3.075 0 6.83333V157.167C0 160.925 3.075 164 6.83334 164H47.8334C51.5917 164 54.6667 160.925 54.6667 157.167V6.83333C54.6667 3.075 51.5917 0 47.8334 0ZM41 41H13.6667V27.3333H41V41Z" fill="#808080"/>
<path d="M116.168 0H75.1678C71.4095 0 68.3345 3.075 68.3345 6.83333V157.167C68.3345 160.925 71.4095 164 75.1678 164H116.168C119.926 164 123.001 160.925 123.001 157.167V6.83333C123.001 3.075 119.926 0 116.168 0ZM109.335 41H82.0012V27.3333H109.335V41Z" fill="#808080"/>
<path d="M163.371 10.5659L126.758 29.0159C123.396 30.7105 122.043 34.8379 123.724 38.1862L185.224 160.23C186.919 163.592 191.046 164.945 194.394 163.264L231.007 144.814C234.369 143.119 235.722 138.992 234.041 135.643L172.541 13.5999C170.847 10.2379 166.719 8.88488 163.371 10.5659Z" fill="#808080"/>
<path d="M198.166 157.166C198.166 160.938 195.104 163.999 191.332 163.999C187.56 163.999 184.499 160.938 184.499 157.166C184.499 153.394 187.56 150.333 191.332 150.333C195.104 150.333 198.166 153.394 198.166 157.166Z" fill="#808080"/>
</svg>
