<svg width="200" height="164" viewBox="0 0 200 164" fill="none" xmlns="http://www.w3.org/2000/svg">
<path d="M106.25 22.4165C114.425 13.7934 128.525 11.3279 145.15 13.005C160.575 14.5569 176.438 19.5505 187.5 24.1811V148.37C176.025 143.99 161.163 139.71 146.413 138.233C132.738 136.844 117.938 137.745 106.25 144.39V22.4165ZM100 11.1027C87.6875 0.502223 69.8375 -1.0747 53.5875 0.552285C34.6625 2.46712 15.5625 8.96255 3.6625 14.3817C2.57061 14.8789 1.64469 15.6802 0.995263 16.6899C0.345834 17.6996 0.000332143 18.8751 0 20.0761L0 157.744C0.000289525 158.791 0.262964 159.821 0.763964 160.74C1.26496 161.659 1.98827 162.438 2.86764 163.004C3.747 163.571 4.75431 163.908 5.79729 163.984C6.84028 164.059 7.8856 163.872 8.8375 163.439C19.8625 158.432 37.625 152.413 54.8375 150.673C72.45 148.896 87.2125 151.762 95.125 161.649C95.7106 162.38 96.4527 162.97 97.2965 163.375C98.1402 163.78 99.0642 163.991 100 163.991C100.936 163.991 101.86 163.78 102.704 163.375C103.547 162.97 104.289 162.38 104.875 161.649C112.788 151.762 127.55 148.896 145.15 150.673C162.375 152.413 180.15 158.432 191.163 163.439C192.114 163.872 193.16 164.059 194.203 163.984C195.246 163.908 196.253 163.571 197.132 163.004C198.012 162.438 198.735 161.659 199.236 160.74C199.737 159.821 200 158.791 200 157.744V20.0761C200 18.8751 199.654 17.6996 199.005 16.6899C198.355 15.6802 197.429 14.8789 196.337 14.3817C184.437 8.96255 165.338 2.46712 146.413 0.552285C130.163 -1.08722 112.313 0.502223 100 11.1027Z" fill="#808080"/>
</svg>
