<svg width="197" height="197" viewBox="0 0 197 197" fill="none" xmlns="http://www.w3.org/2000/svg">
<path d="M194.412 1.49883C195.438 2.37461 196.153 3.55882 196.45 4.87456C196.748 6.1903 196.611 7.56694 196.062 8.79883C176.937 51.6738 136.774 110.924 107.374 141.799C99.1239 150.424 88.9638 156.992 77.7118 160.974C77.4868 163.811 76.9618 167.699 75.7118 171.824C73.1993 180.061 67.3743 190.311 54.3618 193.574C41.7605 196.58 28.6992 197.14 15.8868 195.224C13.5075 194.831 11.1597 194.267 8.86179 193.536C6.74206 192.885 4.76532 191.838 3.03679 190.449C1.89327 189.486 1.01537 188.247 0.486794 186.849C-0.179079 185.06 -0.161275 183.088 0.536794 181.311C1.72429 178.249 4.48679 176.561 6.29929 175.661C11.2243 173.199 14.1118 169.999 17.1368 165.336C18.3243 163.536 19.4368 161.624 20.7243 159.436L22.1868 156.961C24.0743 153.774 26.2618 150.211 29.0118 146.361C35.6118 137.124 44.0243 134.799 50.8368 135.161C52.4201 135.261 53.8701 135.461 55.1868 135.761C55.9618 133.611 56.9618 131.011 58.1618 128.161C61.4243 120.424 66.3868 110.424 72.9993 102.299C100.199 68.9238 150.249 24.7238 186.962 0.998833C188.092 0.269328 189.427 -0.0760472 190.77 0.0140331C192.112 0.104113 193.389 0.624841 194.412 1.49883Z" fill="#808080"/>
</svg>
