<svg width="73" height="51" viewBox="0 0 73 51" fill="none" xmlns="http://www.w3.org/2000/svg">
<path d="M71.5875 1.78747C71.8786 2.07776 72.1095 2.4226 72.267 2.80226C72.4245 3.18192 72.5056 3.58893 72.5056 3.99997C72.5056 4.41102 72.4245 4.81802 72.267 5.19768C72.1095 5.57734 71.8786 5.92219 71.5875 6.21247L27.8375 49.9625C27.5473 50.2535 27.2024 50.4844 26.8228 50.6419C26.4431 50.7995 26.0361 50.8806 25.625 50.8806C25.214 50.8806 24.807 50.7995 24.4273 50.6419C24.0477 50.4844 23.7028 50.2535 23.4125 49.9625L1.53754 28.0875C0.950749 27.5007 0.621094 26.7048 0.621094 25.875C0.621094 25.0451 0.950749 24.2493 1.53754 23.6625C2.12433 23.0757 2.92019 22.746 3.75004 22.746C4.57989 22.746 5.37575 23.0757 5.96254 23.6625L25.625 43.3312L67.1625 1.78747C67.4528 1.49645 67.7977 1.26556 68.1773 1.10802C68.557 0.950478 68.964 0.869385 69.375 0.869385C69.7861 0.869385 70.1931 0.950478 70.5727 1.10802C70.9524 1.26556 71.2973 1.49645 71.5875 1.78747Z" fill="black"/>
</svg>
