<svg width="200" height="200" viewBox="0 0 200 200" fill="none" xmlns="http://www.w3.org/2000/svg">
<g clip-path="url(#clip0_462_247)">
<path d="M100 200C126.522 200 151.957 189.464 170.711 170.711C189.464 151.957 200 126.522 200 100C200 73.4784 189.464 48.043 170.711 29.2893C151.957 10.5357 126.522 0 100 0C73.4784 0 48.043 10.5357 29.2893 29.2893C10.5357 48.043 0 73.4784 0 100C0 126.522 10.5357 151.957 29.2893 170.711C48.043 189.464 73.4784 200 100 200ZM56.25 75H81.25C82.9076 75 84.4973 75.6585 85.6694 76.8306C86.8415 78.0027 87.5 79.5924 87.5 81.25C87.5 82.9076 86.8415 84.4973 85.6694 85.6694C84.4973 86.8415 82.9076 87.5 81.25 87.5H56.25C54.5924 87.5 53.0027 86.8415 51.8306 85.6694C50.6585 84.4973 50 82.9076 50 81.25C50 79.5924 50.6585 78.0027 51.8306 76.8306C53.0027 75.6585 54.5924 75 56.25 75ZM118.75 75H143.75C145.408 75 146.997 75.6585 148.169 76.8306C149.342 78.0027 150 79.5924 150 81.25C150 82.9076 149.342 84.4973 148.169 85.6694C146.997 86.8415 145.408 87.5 143.75 87.5H118.75C117.092 87.5 115.503 86.8415 114.331 85.6694C113.158 84.4973 112.5 82.9076 112.5 81.25C112.5 79.5924 113.158 78.0027 114.331 76.8306C115.503 75.6585 117.092 75 118.75 75ZM56.25 125H143.75C145.408 125 146.997 125.658 148.169 126.831C149.342 128.003 150 129.592 150 131.25C150 132.908 149.342 134.497 148.169 135.669C146.997 136.842 145.408 137.5 143.75 137.5H56.25C54.5924 137.5 53.0027 136.842 51.8306 135.669C50.6585 134.497 50 132.908 50 131.25C50 129.592 50.6585 128.003 51.8306 126.831C53.0027 125.658 54.5924 125 56.25 125Z" fill="#808080"/>
</g>
<defs>
<clipPath id="clip0_462_247">
<rect width="200" height="200" fill="white"/>
</clipPath>
</defs>
</svg>
