<svg width="150" height="200" viewBox="0 0 150 200" fill="none" xmlns="http://www.w3.org/2000/svg">
<path fill-rule="evenodd" clip-rule="evenodd" d="M1.67336e-06 193.746V24.9994C1.67336e-06 18.3692 2.63392 12.0105 7.32233 7.32216C12.0107 2.63386 18.3696 0 25 0L125 0C131.63 0 137.989 2.63386 142.678 7.32216C147.366 12.0105 150 18.3692 150 24.9994V193.746C150.001 194.831 149.719 195.898 149.182 196.841C148.645 197.784 147.872 198.572 146.939 199.125C146.005 199.679 144.944 199.98 143.859 199.999C142.774 200.018 141.702 199.754 140.75 199.233L75 163.359L9.25 199.233C8.29787 199.754 7.22649 200.018 6.14131 199.999C5.05614 199.98 3.99459 199.679 3.06115 199.125C2.12771 198.572 1.35456 197.784 0.817807 196.841C0.281057 195.898 -0.000792423 194.831 1.67336e-06 193.746ZM77 51.2488C76.8173 50.874 76.5329 50.5581 76.1792 50.3371C75.8256 50.116 75.417 49.9989 75 49.9989C74.583 49.9989 74.1744 50.116 73.8208 50.3371C73.4671 50.5581 73.1827 50.874 73 51.2488L65.075 67.311C64.9146 67.6346 64.6787 67.9149 64.3872 68.1281C64.0956 68.3413 63.757 68.4812 63.4 68.5359L45.65 71.1109C45.2414 71.1729 44.8581 71.3475 44.5431 71.6151C44.2282 71.8827 43.994 72.2327 43.8668 72.6259C43.7396 73.0192 43.7245 73.4401 43.8231 73.8414C43.9217 74.2428 44.1301 74.6087 44.425 74.8983L57.25 87.4105C57.775 87.923 58.0125 88.6605 57.8875 89.3855L54.875 107.06C54.8071 107.468 54.8543 107.887 55.0113 108.27C55.1684 108.653 55.429 108.984 55.764 109.227C56.099 109.47 56.4951 109.614 56.9077 109.644C57.3204 109.675 57.7333 109.589 58.1 109.397L73.975 101.048C74.2939 100.883 74.6475 100.797 75.0062 100.797C75.365 100.797 75.7186 100.883 76.0375 101.048L91.9125 109.397C92.2788 109.586 92.6902 109.668 93.1008 109.637C93.5114 109.605 93.9051 109.46 94.2381 109.217C94.5711 108.975 94.8304 108.645 94.9869 108.264C95.1435 107.883 95.1913 107.466 95.125 107.06L92.1 89.373C92.0383 89.0178 92.0629 88.653 92.1717 88.3093C92.2805 87.9656 92.4702 87.653 92.725 87.398L105.575 74.8858C105.87 74.5962 106.078 74.2303 106.177 73.8289C106.276 73.4276 106.26 73.0067 106.133 72.6134C106.006 72.2202 105.772 71.8702 105.457 71.6026C105.142 71.335 104.759 71.1604 104.35 71.0984L86.6 68.5234C86.243 68.4687 85.9044 68.3288 85.6128 68.1156C85.3213 67.9024 85.0854 67.6221 84.925 67.2985L77 51.2488Z" fill="#808080"/>
</svg>
