<svg width="200" height="200" viewBox="0 0 200 200" fill="none" xmlns="http://www.w3.org/2000/svg">
<g clip-path="url(#clip0_468_294)">
<path d="M100 200C126.522 200 151.957 189.464 170.711 170.711C189.464 151.957 200 126.522 200 100C200 73.4784 189.464 48.043 170.711 29.2893C151.957 10.5357 126.522 0 100 0C73.4784 0 48.043 10.5357 29.2893 29.2893C10.5357 48.043 0 73.4784 0 100C0 126.522 10.5357 151.957 29.2893 170.711C48.043 189.464 73.4784 200 100 200ZM87.5 81.25C87.5 91.6 81.9 100 75 100C68.1 100 62.5 91.6 62.5 81.25C62.5 70.9 68.1 62.5 75 62.5C81.9 62.5 87.5 70.9 87.5 81.25ZM50 131.25C50 129.592 50.6585 128.003 51.8306 126.831C53.0027 125.658 54.5924 125 56.25 125H143.75C145.408 125 146.997 125.658 148.169 126.831C149.342 128.003 150 129.592 150 131.25C150 132.908 149.342 134.497 148.169 135.669C146.997 136.842 145.408 137.5 143.75 137.5H56.25C54.5924 137.5 53.0027 136.842 51.8306 135.669C50.6585 134.497 50 132.908 50 131.25ZM125 100C118.1 100 112.5 91.6 112.5 81.25C112.5 70.9 118.1 62.5 125 62.5C131.9 62.5 137.5 70.9 137.5 81.25C137.5 91.6 131.9 100 125 100Z" fill="#808080"/>
</g>
<defs>
<clipPath id="clip0_468_294">
<rect width="200" height="200" fill="white"/>
</clipPath>
</defs>
</svg>
